<?xml version="1.0" standalone="no"?>
<!DOCTYPE svg PUBLIC "-//W3C//DTD SVG 1.1//EN" "http://www.w3.org/Graphics/SVG/1.1/DTD/svg11.dtd" >
<svg xmlns="http://www.w3.org/2000/svg" xmlns:xlink="http://www.w3.org/1999/xlink" version="1.1">
<metadata>
Created by FontForge 20170731 at Sun Oct 19 02:19:23 1997
 By Aleksey,,,
a_BodoniNova *Arsenal Company (c) 1996* FAX: (095)924-3775; e-Mail: arsenal@itco.msk.su; Phone: (095)924-5811 (Design and Featuring W.Chufarofsky)
</metadata>
<defs>
<font id="ABodoniNova" horiz-adv-x="523" >
  <font-face 
    font-family="a_BodoniNova"
    font-weight="400"
    font-stretch="normal"
    units-per-em="1000"
    panose-1="2 7 6 3 8 7 6 2 3 3"
    ascent="800"
    descent="-200"
    x-height="457"
    cap-height="703"
    bbox="-62 -245 1237 919"
    underline-thickness="63"
    underline-position="-243"
    unicode-range="U+0020-2122"
  />
<missing-glyph horiz-adv-x="500" 
d="M63 0v919h375v-919h-375zM125 63h250v794h-250v-794z" />
    <glyph glyph-name=".notdef" horiz-adv-x="500" 
d="M63 0v919h375v-919h-375zM125 63h250v794h-250v-794z" />
    <glyph glyph-name=".null" horiz-adv-x="0" 
 />
    <glyph glyph-name="nonmarkingreturn" horiz-adv-x="288" 
 />
    <glyph glyph-name="space" unicode=" " horiz-adv-x="288" 
 />
    <glyph glyph-name="exclam" unicode="!" horiz-adv-x="324" 
d="M93 639q0 75 68 75q71 0 71 -65q0 -35 -14 -89q-28 -107 -38 -321q-2 -43 -2 -59h-32q-3 86 -16 257q-7 58 -23 125q-14 60 -14 77zM103 48q0 23 17.5 41.5t40.5 18.5q27 0 43 -16.5t16 -43.5t-16 -43.5t-43 -16.5q-23 0 -40.5 18.5t-17.5 41.5z" />
    <glyph glyph-name="quotedbl" unicode="&#x22;" horiz-adv-x="430" 
d="M154 714l-30 -237h-38l-31 237h99zM349 714l-31 -237h-36l-33 237h100z" />
    <glyph glyph-name="numbersign" unicode="#" horiz-adv-x="716" 
d="M445 57h-65l27 143h-155l-27 -143h-67l27 143h-140l14 72h140l30 153h-141l13 72h141l28 142h65l-27 -142h156l28 142h66l-28 -142h141l-13 -72h-141l-30 -153h140l-13 -72h-140zM421 272l28 153h-154l-29 -153h155z" />
    <glyph glyph-name="dollar" unicode="$" horiz-adv-x="579" 
d="M50 0l-8 224l17 5q10 -85 73 -145q58 -55 146 -74v292q-61 18 -66 20q-38 14 -61 31q-77 58 -77 179q0 87 60 136q55 45 144 45v80h25v-80q21 -2 63 -21t62 -19q29 0 42 30h12l10 -168l-14 -2q-63 135 -175 158v-266l68 -18q161 -43 161 -208q0 -102 -65 -158
q-61 -53 -164 -53v-94h-25v94q-37 0 -94.5 26.5t-74.5 26.5q-32 0 -41 -41h-18zM303 296v-286q67 0 117 30q60 35 60 98q0 47 -27 87q-22 32 -68 49q-13 5 -82 22zM278 431v263q-65 0 -108 -30q-49 -34 -49 -96q0 -108 157 -137z" />
    <glyph glyph-name="percent" unicode="%" horiz-adv-x="927" 
d="M93 549q0 67 44 116t110 49t112.5 -49t46.5 -116t-46.5 -117t-112.5 -50t-110 50.5t-44 116.5zM167 571v-46q0 -127 82 -127t82 127v50q0 48 -17 81q-21 43 -65 43t-65 -45q-17 -34 -17 -83zM295 -10l-28 15l368 709l30 -15zM522 155q0 67 44 117t110 50t112 -50t46 -117
q0 -66 -46 -115.5t-112 -49.5q-65 0 -110 51q-44 48 -44 114zM595 178v-49q0 -49 17 -82q22 -42 66 -42q82 0 82 128v49q0 48 -17 81q-21 42 -65 42q-43 0 -65 -44q-18 -35 -18 -83z" />
    <glyph glyph-name="ampersand" unicode="&#x26;" horiz-adv-x="800" 
d="M440 124q-111 -140 -216 -140q-68 0 -123 60t-55 128q0 119 195 220q-79 114 -79 174q0 58 48.5 104.5t106.5 46.5q56 0 92 -32t36 -87q0 -91 -108 -163q31 -44 154 -209q63 69 75 81q57 55 87 55q27 0 46 -18t19 -44q0 -67 -61 -67q-37 0 -52 39q-4 10 -6 26
q-2 12 -3 12q-9 0 -93 -101q103 -140 176 -140q47 0 86 82l16 -11q-26 -70 -51 -103q-40 -53 -97 -53q-74 0 -193 140zM327 450q99 67 99 148q0 41 -26.5 70.5t-67.5 29.5q-37 0 -61 -21t-24 -58q0 -54 80 -169zM428 140q-108 130 -179 239q-108 -57 -108 -139
q0 -61 53 -123t113 -62q57 0 121 85z" />
    <glyph glyph-name="quotesingle" unicode="'" horiz-adv-x="235" 
d="M168 714l-33 -237h-36l-32 237h101z" />
    <glyph glyph-name="parenleft" unicode="(" horiz-adv-x="532" 
d="M377 -235l-17 -10q-87 88 -146 219q-60 136 -60 255q0 127 60 262q54 122 146 226l19 -8q-72 -108 -98 -230q-21 -96 -21 -250q0 -315 117 -464z" />
    <glyph glyph-name="parenright" unicode=")" horiz-adv-x="532" 
d="M173 -245l-18 10q118 150 118 464q0 154 -21 250q-26 120 -99 230l20 8q205 -235 205 -488q0 -121 -60 -255q-57 -129 -145 -219z" />
    <glyph glyph-name="asterisk" unicode="*" 
d="M295 475l-18 -9q6 -33 19 -70q11 -31 11 -54q0 -43 -42 -43q-48 0 -48 44q0 25 30 122l-19 10q-2 -2 -55 -54q-39 -38 -59 -38q-17 0 -31 13.5t-14 30.5q0 20 9.5 29.5t74.5 24.5q26 6 59 21v21q-38 15 -66.5 20.5t-36.5 7.5q-24 7 -32 16.5t-8 32.5q0 18 12 30.5
t30 12.5q23 0 62 -38q28 -27 56 -55l17 10q-6 36 -17 66q-12 34 -12 55q0 20 13.5 34t33.5 14q43 0 43 -47q0 -22 -12 -56t-18 -66l18 -9q28 27 55 54q39 37 61 37q18 0 30.5 -12.5t12.5 -30.5q0 -35 -57 -49q-75 -17 -86 -27v-21q33 -13 65 -20q26 -5 37 -9q26 -7 33.5 -17
t7.5 -32q0 -17 -13.5 -29.5t-30.5 -12.5q-25 0 -52 31t-63 62z" />
    <glyph glyph-name="plus" unicode="+" 
d="M21 382h218v218h46v-218h218v-42h-218v-216h-46v216h-218v42z" />
    <glyph glyph-name="comma" unicode="," horiz-adv-x="355" 
d="M153 -161l-12 15q30 21 54 56q25 40 25 73q0 18 -15 18q-8 0 -22.5 -6.5t-22.5 -6.5q-24 0 -38 17t-14 41q0 59 69 59q41 0 62 -50q8 -19 8 -50q0 -52 -27 -94q-20 -32 -67 -72z" />
    <glyph glyph-name="hyphen" unicode="-" horiz-adv-x="382" 
d="M78 232v48h226v-48h-226z" />
    <glyph glyph-name="hyphen" unicode="&#x2010;" horiz-adv-x="382" 
d="M78 232v48h226v-48h-226z" />
    <glyph glyph-name="period" unicode="." horiz-adv-x="334" 
d="M108 48q0 26 17 43t43 17q24 0 41 -18t17 -42t-17 -42t-41 -18q-26 0 -43 17t-17 43z" />
    <glyph glyph-name="slash" unicode="/" horiz-adv-x="582" 
d="M78 -76l356 901h71l-356 -901h-71z" />
    <glyph glyph-name="zero" unicode="0" horiz-adv-x="587" 
d="M47 351q0 80 20 148q26 88 79 146q63 69 145 69q84 0 148 -69q54 -58 81 -147q20 -66 20 -147q0 -79 -20 -145q-27 -89 -81 -148q-65 -70 -148 -70q-36 0 -79 22q-84 43 -128 146q-37 88 -37 195zM165 465v-232q0 -98 18 -146q28 -79 109 -79t111 78q19 49 19 147v232
q0 98 -19 149q-30 80 -111 80q-79 0 -109 -81q-18 -51 -18 -148z" />
    <glyph glyph-name="one" unicode="1" horiz-adv-x="587" 
d="M238 21v652h-103v24l219 16v-692h126v-21h-371v21h129z" />
    <glyph glyph-name="two" unicode="2" horiz-adv-x="587" 
d="M504 210h19v-210h-461v68l189 173q82 75 110 118q41 64 41 154q0 87 -28 129q-35 51 -117 51q-45 0 -78 -22t-33 -47q0 -21 29.5 -46.5t29.5 -52.5q0 -66 -68 -66q-36 0 -58 31q-13 19 -13 49q0 27 14 58q26 57 83 89q53 29 119 29q240 0 240 -213q0 -53 -22 -92
q-18 -32 -62 -71q-32 -28 -77 -62l-239 -178h277q65 0 84 24q14 18 21 87z" />
    <glyph glyph-name="three" unicode="3" horiz-adv-x="587" 
d="M239 394l-10 16q177 147 236 226l-2 4q-46 -15 -167 -15h-97q-89 0 -107 -88l-13 2l24 186h15q0 -22 49 -22h299q37 0 37 22h14v-22q0 -35 -30 -76q-61 -83 -216 -202l2 -4q30 12 94 12q53 0 97 -40q41 -37 55 -90q8 -29 8 -68q0 -158 -138 -222q-54 -25 -137 -25
q-62 0 -111 21q-58 26 -80 75q-12 27 -12 51t17.5 40.5t41.5 16.5q48 0 48 -54q0 -22 -19 -40.5t-19 -28.5q0 -22 38 -42t92 -20q67 0 108 50t41 187q0 96 -30 123t-128 27z" />
    <glyph glyph-name="four" unicode="4" horiz-adv-x="587" 
d="M307 21v179h-250v30l307 490h53v-477h113v-43h-113v-179h85v-21h-287v21h92zM307 243v346l-222 -346h222z" />
    <glyph glyph-name="five" unicode="5" horiz-adv-x="587" 
d="M139 600l-14 -190q67 56 147 56q106 0 173 -55q72 -59 72 -162q0 -162 -121 -232q-50 -29 -132 -29q-76 0 -133 34q-68 41 -68 112q0 34 18.5 58t51.5 24q64 0 64 -61q0 -36 -26.5 -57.5t-26.5 -31.5q0 -30 35 -46q28 -12 62 -12q80 0 114 50q28 42 28 126v118
q0 84 -63 119q-27 15 -74 15q-79 0 -132 -68l-7 2l24 342q85 -33 177 -33q83 0 157 34l10 -12q-26 -53 -112 -83q-71 -25 -143 -25q-25 0 -81 7z" />
    <glyph glyph-name="six" unicode="6" horiz-adv-x="587" 
d="M174 344q46 99 155 99q62 0 114 -40q49 -38 74 -97q17 -41 17 -93q0 -95 -68 -160t-163 -65q-153 0 -217 157q-28 69 -28 180q0 159 53 260q67 129 212 129q52 0 86 -10q102 -30 102 -109q0 -29 -18 -51.5t-46 -22.5q-26 0 -44.5 16.5t-18.5 41.5q0 17 14.5 43t14.5 39
q0 18 -37 27q-26 7 -53 7q-88 0 -122 -66q-24 -46 -25 -144zM174 274v-123q0 -61 37.5 -102t98.5 -41q108 0 108 150v111q0 148 -108 148q-57 0 -96.5 -42.5t-39.5 -100.5z" />
    <glyph glyph-name="seven" unicode="7" horiz-adv-x="587" 
d="M334 0h-113q0 99 32 181q34 88 157 282q41 66 62 137h-309q-35 0 -53 -22q-12 -14 -23 -54h-18l29 179h412q8 0 8 -6q0 -73 -27 -143q-11 -27 -65 -130q-92 -176 -92 -424z" />
    <glyph glyph-name="eight" unicode="8" horiz-adv-x="587" 
d="M222 369q-28 17 -79 56q-57 52 -57 119q0 61 46 109q44 44 106 56q25 5 59 5q76 0 133 -33q68 -39 68 -109q0 -106 -139 -159q88 -55 116 -83q54 -55 54 -128q0 -91 -67 -152.5t-159 -61.5q-76 0 -136 28q-69 33 -95 96q-14 34 -14 65q0 114 164 192zM334 428
q91 43 91 136q0 61 -34 95.5t-95 34.5q-39 0 -64 -9q-71 -26 -71 -85q0 -65 74 -111zM249 353q-109 -55 -109 -191q0 -71 44.5 -112.5t116.5 -41.5q60 0 103.5 37t43.5 96q0 90 -75 136z" />
    <glyph glyph-name="nine" unicode="9" horiz-adv-x="587" 
d="M414 359q-21 -46 -63.5 -73t-93.5 -27q-88 0 -148 72q-58 69 -58 158q0 95 69 160t164 65q154 0 218 -157q27 -66 27 -179q0 -158 -53 -259q-67 -131 -211 -131q-139 0 -178 77q-11 22 -11 43q0 30 17 51.5t46 21.5q63 0 63 -57q0 -19 -13.5 -44t-13.5 -38q0 -19 37 -28
q26 -7 53 -7q87 0 121 66q25 48 26 145zM414 429v123q0 62 -37.5 102t-98.5 40q-108 0 -108 -148v-113q0 -148 108 -148q58 0 97 43t39 101z" />
    <glyph glyph-name="colon" unicode=":" horiz-adv-x="334" 
d="M108 409q0 25 17.5 42.5t42.5 17.5q24 0 41 -18t17 -42q0 -25 -16.5 -43t-41.5 -18q-26 0 -43 17.5t-17 43.5zM108 48q0 24 18 42t42 18q25 0 41.5 -17.5t16.5 -42.5t-16.5 -42.5t-41.5 -17.5t-42.5 17.5t-17.5 42.5z" />
    <glyph glyph-name="semicolon" unicode=";" horiz-adv-x="355" 
d="M153 -161l-12 15q30 21 54 56q25 40 25 73q0 18 -15 18q-8 0 -22.5 -6.5t-22.5 -6.5q-24 0 -38 17t-14 41q0 59 69 59q8 0 19 -4q51 -18 51 -96q0 -52 -27 -94q-20 -32 -67 -72zM124 409q0 24 16.5 42t40.5 18q25 0 42 -17.5t17 -42.5q0 -26 -16.5 -43.5t-42.5 -17.5
q-24 0 -40.5 18.5t-16.5 42.5z" />
    <glyph glyph-name="less" unicode="&#x3c;" 
d="M18 352l446 258l27 -52l-354 -206l354 -204l-27 -52z" />
    <glyph glyph-name="equal" unicode="=" 
d="M32 436h459v-45h-459v45zM32 286h459v-45h-459v45z" />
    <glyph glyph-name="greater" unicode="&#x3e;" 
d="M505 352l-445 -256l-28 52l355 204l-355 206l28 52z" />
    <glyph glyph-name="question" unicode="?" horiz-adv-x="572" 
d="M277 173h-20v16q0 87 18 138q11 32 36 74l42 70q17 31 17 82q0 141 -110 141q-57 0 -91 -31t-34 -68q0 -20 26 -23q44 -7 47 -8q26 -11 26 -47q0 -25 -17.5 -41t-42.5 -16q-21 0 -43.5 25.5t-22.5 82.5q0 65 45 105.5t111 40.5q58 0 96 -15q104 -41 104 -142
q0 -69 -34 -113q-10 -11 -73 -66q-47 -41 -66 -89q-14 -36 -14 -116zM201 48q0 24 17.5 42t41.5 18q26 0 42.5 -17t16.5 -43q0 -27 -16 -43.5t-43 -16.5q-25 0 -42 17.5t-17 42.5z" />
    <glyph glyph-name="at" unicode="@" horiz-adv-x="1032" 
d="M807 609l-91 -294q-21 -68 -21 -91q0 -34 20 -54q15 -15 35 -15q62 0 121 56q51 48 76 113q21 53 21 120q0 124 -72 218q-68 91 -188 134q-81 29 -183 29q-107 0 -191 -41q-117 -57 -186 -167t-69 -239q0 -187 131.5 -320.5t317.5 -133.5q184 0 298 97l23 -27
q-145 -106 -318 -106q-123 0 -219 48q-182 91 -250 279q-31 86 -31 164q0 204 143.5 344t348.5 140q199 0 333 -108q145 -117 145 -311q0 -125 -67 -220q-74 -107 -194 -107q-83 0 -130 71q-75 -59 -156 -59q-83 0 -131 61q-44 56 -44 141q0 122 84.5 209.5t206.5 87.5
q79 0 133 -74l19 55h85zM603 235l75 256q-8 45 -37 74.5t-73 29.5q-36 0 -70 -23q-56 -38 -89 -110q-30 -67 -30 -139q0 -99 33 -133q21 -22 65 -22q75 0 126 67z" />
    <glyph glyph-name="A" unicode="A" horiz-adv-x="675" 
d="M477 21l-83 217h-222q-18 -41 -35 -81q-26 -64 -26 -89q0 -24 24 -37q20 -10 46 -10v-21h-181v21q27 0 55 24q25 22 36 49l244 609h8l257 -682h75v-21h-297v21h99zM386 259l-98 273l-111 -273h209z" />
    <glyph glyph-name="B" unicode="B" horiz-adv-x="728" 
d="M46 703h332q256 0 256 -161q0 -74 -71 -117q-57 -34 -139 -40v-2q212 -32 240 -143q6 -23 6 -50q0 -104 -92 -153q-71 -37 -186 -37h-346v21h86v660h-86v22zM249 391h84q168 0 168 150q0 77 -38 110q-35 30 -113 30h-101v-290zM249 21h128q159 0 159 163q0 186 -195 186
h-92v-349z" />
    <glyph glyph-name="C" unicode="C" horiz-adv-x="649" 
d="M595 234h20l-10 -234h-20q1 43 -40 43q-11 0 -67 -27.5t-120 -27.5q-89 0 -164 55q-72 52 -109 136q-26 60 -26 161q0 96 28 167q38 95 115 151t178 56q50 0 89 -16.5t58 -16.5q38 0 47 33h21l10 -227l-20 -1q-22 208 -198 208q-34 0 -68 -13q-127 -48 -127 -260v-175
q0 -81 30 -139q35 -68 105 -89q33 -10 58 -10q87 0 145 72q47 59 65 154z" />
    <glyph glyph-name="D" unicode="D" horiz-adv-x="789" 
d="M46 703h321q180 0 276 -89q99 -92 99 -270q0 -149 -99 -246.5t-248 -97.5h-349v21h86v661h-86v21zM249 21h152q124 0 181 139q27 65 27 184q0 125 -22 195q-35 108 -129 133q-37 10 -87 10h-122v-661z" />
    <glyph glyph-name="E" unicode="E" horiz-adv-x="658" 
d="M132 21v661h-86v21h552v-218h-22q0 90 -48 143.5t-137 53.5h-142v-296h42q65 0 94.5 28t29.5 92h18v-263h-18q1 122 -116 122h-50v-344h162q89 0 136 57q38 46 56 141h20l-23 -219h-554v21h86z" />
    <glyph glyph-name="F" unicode="F" horiz-adv-x="620" 
d="M132 21v661h-86v21h557v-226h-22q0 205 -190 205h-142v-296h74q123 0 122 117h19v-269h-19q0 131 -116 131h-80v-344h98v-21h-301v21h86z" />
    <glyph glyph-name="G" unicode="G" horiz-adv-x="770" 
d="M467 293h254v-21h-59v-229h-18q3 39 -31 39q-23 0 -43 -14q-11 -9 -35 -26q-41 -30 -76 -41t-88 -11q-144 0 -232 120q-80 108 -80 257q0 95 52 182t136 133q59 32 132 32q47 0 97.5 -16.5t81.5 -16.5q35 0 48 33h20l7 -227l-23 -1v8q1 57 -34 105q-32 45 -86 71
q-45 22 -107 22q-61 0 -99 -28q-92 -68 -92 -311q0 -346 177 -346q176 0 176 187v78h-78v21z" />
    <glyph glyph-name="H" unicode="H" horiz-adv-x="830" 
d="M249 365v-344h77v-21h-280v21h86v661h-86v21h280v-21h-77v-296h332v296h-77v21h281v-21h-86v-661h86v-21h-281v21h77v344h-332z" />
    <glyph glyph-name="I" unicode="I" horiz-adv-x="380" 
d="M132 21v661h-86v21h288v-21h-85v-661h85v-21h-288v21h86z" />
    <glyph glyph-name="J" unicode="J" horiz-adv-x="495" 
d="M150 703h299v-21h-84v-526q0 -79 -51 -123.5t-131 -44.5q-51 0 -93 24q-45 25 -64 70q-11 26 -11 46q0 28 19 48t47 20t45.5 -16.5t17.5 -43.5q0 -29 -25.5 -51.5t-25.5 -21.5q0 -17 21.5 -35.5t60.5 -18.5q18 0 31 5q40 16 40 128v540h-96v21z" />
    <glyph glyph-name="K" unicode="K" horiz-adv-x="758" 
d="M249 681v-286h80q76 0 102 27t35 97q14 102 18 116q16 59 62 73q20 6 54 6q40 0 70 -26t30 -66q0 -77 -69 -77q-24 0 -43 15t-19 38q0 13 5.5 39.5t5.5 39.5q0 8 -23 8q-41 0 -55 -74q-10 -70 -21 -140q-19 -77 -72 -84v-3q172 -8 212 -146q9 -31 11 -77q2 -40 3 -79
q1 -13 5 -37q7 -20 25 -20q44 0 67 30l14 -13q-52 -54 -108 -54q-51 0 -81 20q-44 29 -54 92q-3 13 -6 117q-3 71 -25 105q-34 52 -114 52h-109v-353h85v-21h-288v21h86v660h-86v22h288v-22h-85z" />
    <glyph glyph-name="L" unicode="L" horiz-adv-x="620" 
d="M132 21v661h-86v21h288v-21h-85v-661h122q52 0 105 37q47 33 79 82q24 36 37 83h15l-35 -223h-526v21h86z" />
    <glyph glyph-name="M" unicode="M" horiz-adv-x="930" 
d="M462 151l218 552h203v-21h-85v-661h85v-21h-287v21h84v626l-256 -647h-8l-263 644v-534q0 -47 18.5 -68t65.5 -21v-21h-191v21q90 0 90 87v513q0 39 -26 52q-18 9 -62 9l1 21h203z" />
    <glyph glyph-name="N" unicode="N" horiz-adv-x="776" 
d="M619 202v408q0 72 -95 72v21h206v-21q-59 0 -77 -19.5t-18 -78.5v-596h-2l-475 615v-486q0 -53 21.5 -74.5t74.5 -21.5v-21h-208v21q95 0 95 96v508q0 18 -40 39q-35 18 -57 18v21h186z" />
    <glyph glyph-name="O" unicode="O" horiz-adv-x="802" 
d="M55 351q0 96 31 166q42 95 126 147q81 50 187 50q110 0 193 -51q85 -54 127 -154q27 -66 27 -158q0 -93 -30 -161q-42 -95 -127 -148.5t-190 -53.5q-103 0 -187 54.5t-126 147.5q-31 69 -31 161zM399 694q-118 0 -171 -120q-39 -87 -39 -223t38 -223q53 -120 172 -120
q32 0 69 13q83 30 123 153q22 68 22 177q0 137 -40 224q-54 119 -174 119z" />
    <glyph glyph-name="P" unicode="P" horiz-adv-x="684" 
d="M132 21v661h-86v21h315q117 0 190 -47q86 -56 86 -167q0 -106 -64 -156q-51 -41 -150 -51q-34 -3 -174 -3v-258h97v-21h-300v21h86zM249 682v-383h79q180 0 180 186q0 101 -39 147q-42 50 -141 50h-79z" />
    <glyph glyph-name="Q" unicode="Q" horiz-adv-x="808" 
d="M59 351q0 95 31 166q42 95 126 147q81 50 187 50q107 0 190 -50.5t126 -146.5q31 -70 31 -166q0 -114 -51 -200q-54 -93 -155 -134q-59 -24 -120 -27l3 -2q40 0 106 -49.5t84 -49.5q59 0 94 50l18 -16q-51 -90 -149 -90q-33 0 -102.5 53.5t-108.5 53.5q-60 0 -97 -29
l-9 11q65 59 115 64v2q-95 7 -172.5 62t-116.5 142q-30 67 -30 159zM403 694q-119 0 -172 -120q-39 -87 -39 -223t39 -223q53 -120 172 -120q32 0 68 13q146 53 146 330q0 137 -40 224q-54 119 -174 119z" />
    <glyph glyph-name="R" unicode="R" horiz-adv-x="747" 
d="M249 21h85v-21h-288v21h86v661h-86v21h302q226 0 277 -85q17 -29 17 -73q0 -156 -213 -172v-2q118 -20 153 -61.5t35 -160.5q0 -66 12.5 -94t35.5 -28q30 0 60 34l15 -15q-46 -58 -116 -58q-33 0 -57 9q-73 27 -73 194q0 85 -33 126q-36 44 -119 44h-93v-340zM249 382h80
q92 0 135 36q46 40 46 130q0 78 -48 109q-39 25 -121 25h-92v-300z" />
    <glyph glyph-name="S" unicode="S" horiz-adv-x="579" 
d="M50 0l-8 224l19 1q66 -216 260 -216q62 0 108 33q51 36 51 96q0 111 -121 144l-130 35q-114 31 -145 137q-10 33 -10 78q0 79 53.5 130.5t132.5 51.5q47 0 70 -5q11 -2 54 -17q30 -11 57 -11q23 0 29 25h15v-173h-16q-48 162 -205 162q-69 0 -106 -39t-37 -88
q0 -92 107 -125q98 -28 197 -56q107 -52 107 -188q0 -89 -54 -149q-57 -62 -145 -62q-74 0 -141 27q-18 8 -37 17q-22 9 -38 9q-40 0 -45 -41h-22z" />
    <glyph glyph-name="T" unicode="T" horiz-adv-x="695" 
d="M288 21v661q-237 0 -237 -201h-21v222h634v-222h-21q0 201 -236 201v-661h94v-21h-307v21h94z" />
    <glyph glyph-name="U" unicode="U" horiz-adv-x="802" 
d="M416 -12q-115 0 -191 46q-93 55 -93 162v486h-86v21h288v-21h-85v-503q0 -79 61 -122q54 -38 136 -38q94 0 145.5 52.5t51.5 147.5v387q0 77 -105 76v21h217v-21q-53 1 -74.5 -21.5t-21.5 -76.5v-388q0 -107 -70 -161q-62 -47 -173 -47z" />
    <glyph glyph-name="V" unicode="V" horiz-adv-x="718" 
d="M15 703h303v-21h-87l189 -502l154 394q16 41 16 64q0 44 -72 44v21h184v-21q-43 0 -68 -27q-18 -19 -36 -67l-228 -593l-280 687h-75v21z" />
    <glyph glyph-name="W" unicode="W" horiz-adv-x="1108" 
d="M15 703h269v-21h-82l192 -499l138 344l-58 155h-77v21h287v-21h-84l195 -507l147 356q17 41 17 71q0 80 -111 80v21h255v-21q-24 0 -39 -4q-47 -13 -97 -134l-226 -549l-198 501l-205 -501l-264 687h-59v21z" />
    <glyph glyph-name="X" unicode="X" horiz-adv-x="767" 
d="M398 434l114 169q11 16 11 42q0 13 -19 25t-61 12v21h236v-21q-56 -4 -87 -24t-63 -68l-115 -174l266 -395h63v-21h-287v21h83l-206 305l-132 -196q-15 -22 -15 -46q0 -57 87 -63v-21h-248v22q94 20 140 89l157 233l-234 338h-63v21h276v-21h-70z" />
    <glyph glyph-name="Y" unicode="Y" horiz-adv-x="719" 
d="M306 279l-224 403h-67v21h292v-21h-87l191 -359l131 238q23 42 23 68q0 19 -17 36t-76 17v21h231v-21q-25 0 -40 -4q-39 -10 -98 -117l-142 -256v-284h86v-21h-288v21h85v258z" />
    <glyph glyph-name="Z" unicode="Z" horiz-adv-x="673" 
d="M124 524h-21v179h524l-429 -682h212q129 0 192 166h17l-23 -187h-550l446 682h-169q-98 0 -141 -30q-51 -35 -58 -128z" />
    <glyph glyph-name="bracketleft" unicode="[" horiz-adv-x="486" 
d="M410 -201v-28h-225v932h225v-26h-117v-878h117z" />
    <glyph glyph-name="backslash" unicode="\" horiz-adv-x="582" 
d="M505 -76h-72l-355 901h70z" />
    <glyph glyph-name="bracketright" unicode="]" horiz-adv-x="486" 
d="M78 -201h118v878h-118v26h223v-932h-223v28z" />
    <glyph glyph-name="asciicircum" unicode="^" 
d="M262 616l-90 -87h-92l182 177l181 -177h-93z" />
    <glyph glyph-name="underscore" unicode="_" 
d="M-12 -210v75h547v-75h-547z" />
    <glyph glyph-name="grave" unicode="`" horiz-adv-x="237" 
d="M130 703l107 -147h-24l-213 147h130z" />
    <glyph glyph-name="a" unicode="a" horiz-adv-x="513" 
d="M502 54l12 -11q-42 -55 -108 -55q-38 0 -59 19q-18 16 -31 55q-75 -74 -164 -74q-54 0 -89 32t-35 86q0 86 88 124q63 28 162 28h39v120q0 41 -17.5 56t-59.5 15q-73 0 -73 -23q0 -17 10.5 -34t10.5 -27q0 -66 -61 -66q-31 0 -48 23t-17 55q0 47 69 73q53 19 110 19
q89 0 127 -21q51 -29 51 -111v-273q0 -42 28 -42q26 0 55 32zM317 108v132h-31q-80 0 -109 -26q-32 -28 -32 -107q0 -73 79 -73q29 0 61 23t32 51z" />
    <glyph glyph-name="b" unicode="b" horiz-adv-x="548" 
d="M191 69v-69h-172v18h70v663h-70v19l172 6v-296q42 59 106 59q109 0 167 -66q55 -63 55 -173q0 -122 -61 -182t-154 -60q-71 0 -113 81zM406 147v143q0 51 -12 83q-29 77 -95 77q-40 0 -72 -24q-36 -26 -36 -64v-239q0 -46 33.5 -81t78.5 -35q55 0 81 45q22 37 22 95z" />
    <glyph glyph-name="c" unicode="c" horiz-adv-x="450" 
d="M414 117l12 -5q-29 -66 -59 -92q-37 -32 -103 -32q-116 0 -175.5 62.5t-59.5 178.5q0 240 235 240q70 0 114 -34t44 -77q0 -28 -16 -49.5t-43 -21.5q-28 0 -47.5 19t-19.5 47q0 13 16.5 32t16.5 39q0 8 -13 17q-16 11 -49 11q-25 0 -41 -3q-84 -16 -84 -151v-135
q0 -75 24 -111q30 -45 101 -45q95 0 147 110z" />
    <glyph glyph-name="d" unicode="d" horiz-adv-x="548" 
d="M357 0v68q-29 -51 -59.5 -65.5t-55.5 -14.5q-37 0 -75 15q-68 27 -105 91q-34 60 -34 136q0 110 56.5 174.5t164.5 64.5q64 0 108 -58v270h-70v19l172 6v-688h69v-18h-171zM141 144q0 -137 103 -137q46 0 79.5 34.5t33.5 81.5v205q0 122 -109 122q-55 0 -84 -53
q-23 -43 -23 -103v-150z" />
    <glyph glyph-name="e" unicode="e" horiz-adv-x="480" 
d="M441 126l16 -11q-84 -127 -199 -127q-110 0 -170 65t-60 176q0 101 56 168q60 72 159 72q96 0 151 -61q52 -57 58 -154h-311v-74q0 -170 113 -170q103 0 187 116zM141 272h202q0 78 -12 115q-22 63 -83 63t-87 -39q-20 -31 -20 -96v-43z" />
    <glyph glyph-name="f" unicode="f" horiz-adv-x="319" 
d="M92 438h-70v19h70v24.5v25.5q0 67 15 104q39 95 142 95q44 0 74.5 -26.5t30.5 -70.5q0 -19 -11.5 -34t-30.5 -15q-44 0 -44 42q0 16 17 33t17 31q0 13 -19 21q-15 6 -30 6q-33 0 -46 -32t-13 -109v-95h96v-19h-96v-420h78v-18h-250v18h70v420z" />
    <glyph glyph-name="g" unicode="g" horiz-adv-x="501" 
d="M241 469q29 0 54.5 -6t23.5 -6h129q20 0 25 -2q12 -5 12 -21q0 -17 -23 -17q-9 0 -88 17q29 -18 45 -60q15 -37 15 -76q0 -78 -59 -123q-54 -42 -134 -42q-27 0 -56 6q-44 -15 -44 -34q0 -14 14.5 -21.5t78.5 -11.5q92 -6 105 -8q67 -8 98 -27q42 -26 42 -96
q0 -88 -85 -130q-64 -32 -163 -32q-83 0 -139 24q-77 34 -77 106q0 63 78 105q-24 26 -24 56q0 53 68 82q-40 22 -63.5 62t-23.5 86q0 79 57 126q53 43 134 43zM242 449q-89 0 -89 -153q0 -144 88 -144q91 0 91 146q0 151 -90 151zM88 -83q0 -55 54 -89q47 -30 105 -30
q119 0 164 76q12 20 12 41q0 48 -86 54l-119 8q-62 4 -93 17q-37 -37 -37 -77z" />
    <glyph glyph-name="h" unicode="h" horiz-adv-x="578" 
d="M89 681h-70v19l172 6v-317q76 81 158 81q59 0 96 -24q44 -29 44 -84v-344h71v-18h-234v18h62v344q0 77 -75 77q-65 0 -122 -71v-350h61v-18h-233v18h70v663z" />
    <glyph glyph-name="i" unicode="i" horiz-adv-x="282" 
d="M22 18h70v420h-70v19l172 6v-445h70v-18h-242v18zM82 630q0 25 16.5 43t41.5 18q26 0 42.5 -17.5t16.5 -43.5q0 -25 -17 -42t-42 -17q-23 0 -40.5 18t-17.5 41z" />
    <glyph glyph-name="j" unicode="j" horiz-adv-x="297" 
d="M111 438h-84v19l186 6v-530q0 -71 -44 -121q-45 -53 -115 -53q-116 0 -116 87q0 49 55 49q20 0 35 -12t15 -32q0 -12 -7 -29.5t-7 -24.5q0 -12 19 -12q29 0 47.5 23.5t18.5 53.5q0 9 -1.5 26.5t-1.5 26.5v523zM102 630q0 25 16.5 43t41.5 18q26 0 42.5 -17.5t16.5 -43.5
q0 -25 -17 -42t-42 -17q-23 0 -40.5 18t-17.5 41z" />
    <glyph glyph-name="k" unicode="k" horiz-adv-x="559" 
d="M89 18v663h-70v19l172 6v-446h43q40 0 58 18q14 14 32 75q20 67 33 86q20 30 70 30q36 0 60 -20t24 -56q0 -27 -14.5 -46.5t-41.5 -19.5q-23 0 -38 11q-18 13 -18 35q0 6 4 18.5t4 18.5q0 15 -22 15q-19 0 -38 -66q-24 -83 -25 -85q-9 -17 -26 -21v-1q63 -5 91 -15
q49 -19 60 -64q6 -24 6 -65q0 -74 38 -74q35 0 47 27l12 -5q-34 -68 -112 -68q-37 0 -61 27q-21 24 -24 100q-3 71 -37 98.5t-92 27.5h-33v-223h69v-18h-241v18h70z" />
    <glyph glyph-name="l" unicode="l" horiz-adv-x="283" 
d="M93 681h-70v19l172 6v-688h70v-18h-245v18h73v663z" />
    <glyph glyph-name="m" unicode="m" horiz-adv-x="839" 
d="M194 463v-75q71 81 148 81q108 0 127 -84q75 84 151 84q56 0 91 -25q40 -28 40 -82v-344h69v-18h-233v18h61v344q0 77 -64 77q-58 0 -111 -71v-350h60v-18h-225v18h63v348q0 73 -66 73q-55 0 -111 -71v-350h61v-18h-233v18h70v420h-70v19z" />
    <glyph glyph-name="n" unicode="n" horiz-adv-x="582" 
d="M92 438h-70v19l172 6v-74q78 81 158 81q58 0 96 -24q45 -29 45 -84v-344h70v-18h-234v18h62v344q0 77 -75 77q-60 0 -122 -71v-350h61v-18h-233v18h70v420z" />
    <glyph glyph-name="o" unicode="o" horiz-adv-x="521" 
d="M28 229q0 113 59.5 176.5t172.5 63.5q111 0 172 -64t61 -176t-60.5 -176.5t-172.5 -64.5q-113 0 -172.5 63.5t-59.5 177.5zM142 225q0 -93 17 -141q28 -78 103 -78q117 0 117 221q0 95 -16 143q-27 80 -103 80q-74 0 -102 -82q-16 -49 -16 -143z" />
    <glyph glyph-name="p" unicode="p" horiz-adv-x="548" 
d="M191 463v-77q39 83 113 83q106 0 162 -69q53 -64 53 -172q0 -112 -54 -174q-58 -66 -168 -66q-72 0 -106 61v-248h79v-19h-251v19h70v637h-70v19zM406 312q0 136 -103 136q-47 0 -79.5 -33t-32.5 -80v-240q0 -37 35 -63.5t73 -26.5q107 0 107 158v149z" />
    <glyph glyph-name="q" unicode="q" horiz-adv-x="548" 
d="M357 387v76l171 -6v-19h-69v-637h69v-19h-250v19h79v247q-41 -60 -108 -60q-108 0 -166 67q-55 63 -55 173q0 59 20 105q26 60 78.5 98t115.5 38q42 0 70 -22q22 -18 45 -60zM141 163q0 -64 21 -105q28 -53 86 -53q109 0 109 124v206q0 47 -33 80t-80 33
q-103 0 -103 -135v-150z" />
    <glyph glyph-name="r" unicode="r" horiz-adv-x="430" 
d="M22 18h70v420h-70v19l172 6v-111q49 116 144 116q77 0 77 -76q0 -22 -13.5 -37.5t-34.5 -15.5q-30 0 -41 19q-7 11 -9 35t-7 28q-8 6 -23 6q-23 0 -50 -34q-22 -28 -32.5 -55t-10.5 -55v-265h70v-18h-242v18z" />
    <glyph glyph-name="s" unicode="s" horiz-adv-x="399" 
d="M25 -4v143h9q22 -57 66 -93q48 -39 106 -39q39 0 70 14q40 19 40 53q0 44 -14 61q-19 23 -92 40q-85 19 -116 39q-57 37 -57 117q0 61 41 99.5t103 38.5q39 0 71 -13.5t46 -13.5q24 0 31 15h9v-127h-9q-50 122 -145 122q-52 0 -76 -24t-24 -48q0 -57 64 -76l131 -39
q96 -29 96 -121q0 -76 -52 -117q-48 -39 -125 -39q-38 0 -75 16q-42 18 -46 18q-33 0 -43 -26h-9z" />
    <glyph glyph-name="t" unicode="t" horiz-adv-x="360" 
d="M37 457h71v141l102 46v-187h96v-19h-96v-352q0 -63 50 -63q35 0 71 30l10 -11q-57 -55 -125 -55q-108 0 -108 122v329h-71v19z" />
    <glyph glyph-name="u" unicode="u" horiz-adv-x="578" 
d="M489 18h71v-18h-172v67q-73 -81 -157 -81q-142 0 -142 142v310h-70v19l172 6v-368q0 -78 76 -78q64 0 121 72v349h-62v19l163 6v-445z" />
    <glyph glyph-name="v" unicode="v" horiz-adv-x="521" 
d="M0 457h247v-19h-82l135 -317l102 238q11 26 11 34q0 45 -69 45v19h177v-19q-60 0 -95 -80l-160 -370h-21l-197 450h-48v19z" />
    <glyph glyph-name="w" unicode="w" horiz-adv-x="820" 
d="M0 438v19h219v-19h-54l147 -316l84 186l-59 130h-48v19h230v-19h-65l145 -316l94 223q10 24 10 42q0 51 -76 51v19h193v-19q-40 0 -64 -29q-13 -16 -34 -64l-157 -357h-21l-132 290l-129 -290h-24l-212 450h-47z" />
    <glyph glyph-name="x" unicode="x" horiz-adv-x="549" 
d="M226 212l-160 226h-58v19h234v-19h-48l114 -159l52 73q28 39 28 66q0 20 -59 20v19h186v-19q-41 0 -65 -13.5t-49 -47.5l-84 -115l173 -244h50v-18h-238v18h63l-129 178l-72 -96q-18 -24 -18 -53q0 -13 23 -22q18 -7 34 -7v-18h-195v18q77 0 143 91z" />
    <glyph glyph-name="y" unicode="y" horiz-adv-x="510" 
d="M0 457h233v-19h-70l165 -336l92 249q7 19 7 49q0 26 -26 34q-13 4 -48 4v19h172v-19q-35 0 -58 -30q-13 -18 -30 -63l-168 -453q-42 -114 -124 -114q-37 0 -65 20q-31 22 -31 57q0 26 18.5 41t44.5 15q43 0 43 -41q0 -11 -6 -18t-6 -21q0 -18 35 -18q39 0 74 88l27 68
l-230 469h-49v19z" />
    <glyph glyph-name="z" unicode="z" horiz-adv-x="442" 
d="M47 322v135h376l-272 -439h49q86 0 130 20q59 28 75 103h9l-8 -141h-391l275 438h-85q-47 0 -95 -34q-51 -37 -51 -82h-12z" />
    <glyph glyph-name="braceleft" unicode="{" horiz-adv-x="384" 
d="M320 780l5 -36q-85 -15 -85 -101q0 -23 3 -68t3 -68q0 -86 -28 -137q-30 -55 -105 -91q75 -34 106 -91q27 -50 27 -137q0 -20 -3 -59.5t-3 -60.5v-15q0 -38 24 -67.5t61 -34.5l-5 -36q-159 20 -159 215q0 13 1.5 38.5t1.5 38.5q0 69 -18 117q-26 67 -84 70v44
q102 7 102 187q0 13 -1.5 39t-1.5 39q0 164 107 202q24 9 52 12z" />
    <glyph glyph-name="bar" unicode="|" 
d="M224 -210v1129h74v-1129h-74z" />
    <glyph glyph-name="braceright" unicode="}" horiz-adv-x="384" 
d="M64 -222l-5 36q38 6 61 34.5t23 67.5q0 23 -3 68t-3 67q0 87 27 137q31 57 106 91q-73 35 -104 92q-29 52 -29 136q0 23 3 68t3 68q0 83 -84 102l5 35q61 -6 93 -32q58 -47 64 -127q2 -28 2 -55q0 -13 -1.5 -39t-1.5 -39q0 -101 30.5 -142.5t71.5 -44.5v-44
q-102 -8 -102 -187q0 -13 1.5 -38.5t1.5 -38.5q0 -25 -2 -53q-6 -80 -64 -128q-33 -27 -93 -34z" />
    <glyph glyph-name="asciitilde" unicode="~" 
d="M66 352h-30q20 49 55 81q41 37 89 37q40 0 98 -14q96 -23 97 -23q26 -5 40 -5q19 0 43 39h28q-52 -114 -116 -114q-40 0 -118 19t-118 19q-47 0 -68 -39z" />
    <glyph glyph-name="currency" unicode="&#xa4;" 
d="M476 603l36 -36l-79 -77q49 -60 49 -138q0 -79 -49 -137l79 -77l-36 -37l-77 80q-57 -48 -139 -48q-79 0 -136 48l-77 -80l-36 37l80 77q-50 57 -50 137q0 79 50 138l-80 77l36 36l77 -79q57 48 136 48q82 0 139 -48zM92 352q0 -71 48.5 -122.5t119.5 -51.5q72 0 122 51
t50 123t-50 124t-122 52q-71 0 -119.5 -52.5t-48.5 -123.5z" />
    <glyph glyph-name="brokenbar" unicode="&#xa6;" 
d="M225 -210v518h74v-518h-74zM225 919h74v-519h-74v519z" />
    <glyph glyph-name="section" unicode="&#xa7;" horiz-adv-x="592" 
d="M298 829q176 0 176 -152q0 -57 -54 -57q-24 0 -38 17t-14 42q0 20 20.5 43t20.5 41q0 45 -109 45q-61 0 -101 -32q-43 -35 -43 -94q0 -79 80 -111l182 -73q112 -45 112 -155q0 -71 -31 -120q-37 -59 -104 -59q54 -26 75.5 -60.5t21.5 -95.5q0 -89 -56.5 -141.5
t-146.5 -52.5q-79 0 -133 34q-64 40 -64 114q0 29 16.5 47.5t44.5 18.5q48 0 48 -60q0 -24 -23 -38t-23 -23q0 -23 33.5 -47.5t89.5 -24.5q59 0 102 27q50 31 50 86q0 59 -13.5 81t-66.5 44l-168 70q-120 50 -120 180q0 58 32.5 105.5t87.5 58.5q-72 48 -72 169q0 82 54 128
q51 45 134 45zM492 275q0 79 -92 116l-160 65q-17 7 -39 7q-45 0 -73 -23q-32 -25 -32 -69q0 -76 77 -106l195 -77q13 -5 27 -5q38 0 67.5 27.5t29.5 64.5z" />
    <glyph glyph-name="copyright" unicode="&#xa9;" horiz-adv-x="811" 
d="M45 350q0 106 58 197.5t154 135.5q67 31 149 31q151 0 255.5 -106.5t104.5 -257.5q0 -149 -105.5 -255.5t-254.5 -106.5q-65 0 -132 26q-106 41 -167.5 131.5t-61.5 204.5zM69 350q0 -59 24 -120q38 -97 123 -154.5t190 -57.5q137 0 237 97.5t100 234.5q0 76 -29 138
q-41 89 -125.5 142.5t-182.5 53.5q-139 0 -238 -98t-99 -236zM534 435h-12q-14 122 -120 122q-56 0 -86 -60q-23 -48 -23 -110q0 -149 42 -203q31 -40 76 -40q50 0 88 43q34 39 44 92h13l-5 -147h-13v3q1 17 -14 17q-2 0 -33 -13.5t-81 -13.5q-95 0 -151 60.5t-56 155.5
t51 162q56 74 148 74q41 0 68 -7t34 -7q8 0 14 14h10z" />
    <glyph glyph-name="guillemotleft" unicode="&#xab;" horiz-adv-x="414" 
d="M302 12l-8 -7q-111 128 -264 223q148 89 264 221l8 -6q-79 -127 -154 -215q82 -98 154 -216zM384 109l-8 -2q-67 71 -153 121q84 47 153 120l7 -2q-25 -64 -77 -117q46 -50 78 -120z" />
    <glyph glyph-name="logicalnot" unicode="&#xac;" 
d="M477 300v-195h-39v161h-395v34h434z" />
    <glyph glyph-name="registered" unicode="&#xae;" horiz-adv-x="818" 
d="M346 163h47v-12h-173v12h47v373h-47v13h175q167 0 167 -89q0 -79 -124 -96v-2q93 -22 106 -77q3 -30 11 -91q4 -27 19 -27q13 0 32 18l8 -8q-30 -32 -69 -32q-40 0 -57 17q-14 14 -20 63q-9 72 -11 83q-11 42 -38 46q-6 1 -73 1v-192zM346 367h37q91 0 91 93
q0 44 -20.5 60t-66.5 16h-41v-169zM48 351q0 106 58.5 197.5t154.5 136.5q67 31 148 31q106 0 196 -58.5t134 -154.5q31 -68 31 -152q0 -150 -105.5 -256.5t-255.5 -106.5q-149 0 -255 107t-106 256zM73 351q0 -136 100 -234.5t236 -98.5q138 0 237.5 97.5t99.5 235.5
q0 140 -98 237t-239 97q-138 0 -237 -98t-99 -236z" />
    <glyph glyph-name="degree" unicode="&#xb0;" horiz-adv-x="319" 
d="M59 638q0 42 29 69.5t71 27.5t71.5 -27.5t29.5 -69.5t-29.5 -70t-71.5 -28q-41 0 -70.5 28.5t-29.5 69.5zM84 638q0 -31 22 -53.5t53 -22.5q35 0 56 20.5t21 55.5q0 34 -21.5 55t-55.5 21q-33 0 -54 -21.5t-21 -54.5z" />
    <glyph glyph-name="plusminus" unicode="&#xb1;" 
d="M286 188h-45v161h-215v46h215v171h45v-171h211v-46h-211v-161zM497 106v-44h-471v44h471z" />
    <glyph glyph-name="mu" unicode="&#xb5;" 
d="M445 17h62v-17h-155v57q-58 -70 -132 -70q-46 0 -75 33h-3q11 -44 21 -87q13 -54 13 -88q0 -63 -56 -63q-30 0 -42.5 22t-12.5 41q0 17 16 132q15 108 15 143v305h93v-336q0 -31 18.5 -52t48.5 -21q54 0 96 66v343h93v-408z" />
    <glyph glyph-name="mu" unicode="&#x3bc;" 
d="M445 17h62v-17h-155v57q-58 -70 -132 -70q-46 0 -75 33h-3q11 -44 21 -87q13 -54 13 -88q0 -63 -56 -63q-30 0 -42.5 22t-12.5 41q0 17 16 132q15 108 15 143v305h93v-336q0 -31 18.5 -52t48.5 -21q54 0 96 66v343h93v-408z" />
    <glyph glyph-name="paragraph" unicode="&#xb6;" 
d="M520 725h-83v-894h-76v894h-79v-894h-77v544q-78 2 -135.5 56t-57.5 132q0 79 56.5 133.5t136.5 54.5h315v-26z" />
    <glyph glyph-name="periodcentered" unicode="&#xb7;" horiz-adv-x="201" 
d="M45 338q0 24 16 41t40 17t39.5 -16.5t15.5 -41.5t-15.5 -41.5t-39.5 -16.5q-25 0 -40.5 16.5t-15.5 41.5z" />
    <glyph glyph-name="periodcentered" unicode="&#x2219;" horiz-adv-x="201" 
d="M45 338q0 24 16 41t40 17t39.5 -16.5t15.5 -41.5t-15.5 -41.5t-39.5 -16.5q-25 0 -40.5 16.5t-15.5 41.5z" />
    <glyph glyph-name="guillemotright" unicode="&#xbb;" horiz-adv-x="414" 
d="M112 443l8 6q115 -132 264 -221q-154 -96 -263 -223l-9 7q72 120 154 216q-81 93 -154 215zM30 346l8 2q67 -73 153 -120q-87 -48 -153 -121l-8 2q29 63 77 120q-48 54 -77 117z" />
    <glyph glyph-name="afii10023" unicode="&#x401;" horiz-adv-x="655" 
d="M454 766q-62 0 -62 49q0 47 62 47q61 0 61 -47q0 -49 -61 -49zM220 766q-61 0 -61 49q0 47 61 47t61 -47q0 -49 -61 -49zM132 21v661h-86v21h552v-218h-22q0 90 -48 143.5t-137 53.5h-142v-296h42q65 0 94.5 28t29.5 92h15v-263h-15q1 122 -116 122h-50v-344h162
q89 0 136 57q38 46 56 141h20l-23 -219h-554v21h86z" />
    <glyph glyph-name="afii10017" unicode="&#x410;" horiz-adv-x="675" 
d="M477 21l-83 217h-222q-18 -41 -35 -81q-26 -64 -26 -89q0 -24 24 -37q20 -10 46 -10v-21h-181v21q27 0 55 24q25 22 36 49l244 609h8l257 -682h75v-21h-297v21h99zM386 259l-98 273l-111 -273h209z" />
    <glyph glyph-name="afii10018" unicode="&#x411;" horiz-adv-x="703" 
d="M249 681v-274q184 -2 254 -23q142 -42 142 -178q0 -123 -92 -171q-67 -35 -202 -35h-305v21h86v660h-86v22h550v-196h-22q1 174 -159 174h-166zM249 385v-364h72q103 0 147 41.5t44 143.5q0 52 -13 85q-24 61 -107 82q-49 12 -143 12z" />
    <glyph glyph-name="afii10019" unicode="&#x412;" horiz-adv-x="728" 
d="M46 703h332q256 0 256 -161q0 -74 -71 -117q-57 -34 -139 -40v-2q212 -32 240 -143q6 -23 6 -50q0 -104 -92 -153q-71 -37 -186 -37h-346v21h86v660h-86v22zM249 391h84q168 0 168 150q0 77 -38 110q-35 30 -113 30h-101v-290zM249 21h128q159 0 159 163q0 186 -195 186
h-92v-349z" />
    <glyph glyph-name="afii10020" unicode="&#x413;" horiz-adv-x="593" 
d="M132 21v661h-86v21h541v-227h-21q0 100 -35 148q-42 58 -137 58h-145v-661h95v-21h-298v21h86z" />
    <glyph glyph-name="afii10021" unicode="&#x414;" horiz-adv-x="703" 
d="M678 -192h-22q0 192 -200 192h-267q-98 0 -139 -48q-35 -42 -41 -144h-21l15 213h32q25 0 51 22q41 35 63 102q19 58 19 120v322q0 95 -107 95v21h598v-21h-86v-661h105v-213zM456 21v661h-179q-88 0 -88 -75v-343q0 -157 -66 -243h333z" />
    <glyph glyph-name="afii10022" unicode="&#x415;" horiz-adv-x="658" 
d="M132 21v661h-86v21h551v-218h-21q0 90 -48 143.5t-137 53.5h-142v-296h42q65 0 94.5 28t29.5 92h15v-263h-15q1 122 -116 122h-50v-344h162q89 0 136 57q38 46 56 141h20l-23 -219h-554v21h86z" />
    <glyph glyph-name="afii10024" unicode="&#x416;" horiz-adv-x="1165" 
d="M57 55q23 -30 68 -30q18 0 24 19.5t6 105.5q0 223 226 234v3q-52 7 -71 65q-8 23 -18 118q-8 74 -31 101q-12 14 -28 14q-24 0 -24 -8q0 -13 5.5 -39.5t5.5 -39.5q0 -24 -18.5 -38.5t-43.5 -14.5q-68 0 -68 77q0 39 29.5 65.5t69.5 26.5q36 0 55 -6q50 -16 65 -89
q9 -66 19 -132q16 -72 70 -86q26 -7 74 -7q9 0 26 1h26v286h-85v22h287v-22h-86v-286h65q76 0 102 27t36 97q14 104 18 116q16 59 61 73q19 6 54 6q40 0 70 -26t30 -66q0 -77 -69 -77q-25 0 -43.5 14.5t-18.5 38.5q0 13 5 39.5t5 39.5q0 8 -18 8q-20 0 -32 -14
q-23 -26 -32 -100q-13 -96 -20 -118q-19 -58 -68 -66v-3q172 -8 212 -146q9 -31 11 -77q2 -40 3 -79q3 -57 30 -57q44 0 67 30l14 -13q-52 -54 -108 -54q-52 0 -81 20q-49 34 -57 113q-3 67 -7 135q-9 75 -63 104q-26 14 -73 14h-93v-353h86v-21h-287v21h85v353h-93
q-80 0 -113 -52q-23 -37 -26 -107q-3 -102 -5 -115q-10 -61 -56 -92q-29 -20 -81 -20q-55 0 -107 54z" />
    <glyph glyph-name="afii10025" unicode="&#x417;" horiz-adv-x="639" 
d="M95 485h-15l22 229h15q8 -22 41 -22q23 0 57 7q50 11 56 12q19 3 54 3q109 0 165 -33q71 -42 71 -143q0 -77 -48 -116q-40 -32 -122 -41v-3q191 -18 191 -197q0 -35 -15 -69q-54 -124 -283 -124q-84 0 -152 37q-83 44 -83 121q0 37 18.5 63t54.5 26q27 0 47.5 -17.5
t20.5 -43.5q0 -30 -17 -47q-6 -5 -33 -20q-17 -9 -17 -22q0 -11 11 -25q42 -52 150 -52q164 0 164 172q0 155 -95 179q-28 7 -76 7h-33q-24 -1 -33 -1v21h90q125 0 125 162q0 72 -23 105q-28 39 -97 39q-91 0 -146 -60q-50 -53 -65 -147z" />
    <glyph glyph-name="afii10026" unicode="&#x418;" horiz-adv-x="830" 
d="M249 116l332 496v69h-77v22h281v-22h-86v-660h86v-21h-281v21h77v560l-332 -501v-59h77v-21h-280v21h86v660h-86v22h280v-22h-77v-565z" />
    <glyph glyph-name="afii10027" unicode="&#x419;" horiz-adv-x="830" 
d="M415 746q-61 0 -107 21q-60 28 -60 82q0 25 16.5 41t41.5 16q51 0 51 -55q0 -16 -16.5 -28t-16.5 -27q0 -32 95 -32q87 0 87 32q0 13 -17.5 27.5t-17.5 27.5q0 22 15 38.5t37 16.5q25 0 41.5 -16t16.5 -41q0 -54 -59 -82q-46 -21 -107 -21zM249 116l332 496v69h-77v22
h281v-22h-86v-660h86v-21h-281v21h77v560l-332 -501v-59h77v-21h-280v21h86v660h-86v22h280v-22h-77v-565z" />
    <glyph glyph-name="afii10028" unicode="&#x41a;" horiz-adv-x="758" 
d="M249 681v-286h80q76 0 102 27t35 97q14 102 18 116q16 59 62 73q20 6 54 6q40 0 70 -26t30 -66q0 -77 -69 -77q-24 0 -43 15t-19 38q0 13 5.5 39.5t5.5 39.5q0 8 -23 8q-41 0 -55 -74q-10 -70 -21 -140q-19 -77 -72 -84v-3q172 -8 212 -146q9 -31 11 -77q2 -40 3 -79
q1 -13 5 -37q7 -20 25 -20q44 0 67 30l14 -13q-52 -54 -108 -54q-51 0 -81 20q-44 29 -54 92q-3 13 -6 117q-3 71 -25 105q-34 52 -114 52h-109v-353h85v-21h-288v21h86v660h-86v22h288v-22h-85z" />
    <glyph glyph-name="afii10029" unicode="&#x41b;" horiz-adv-x="767" 
d="M116 703h602v-21h-86v-661h86v-21h-289v21h86v661h-137q-36 0 -57 -5q-40 -10 -53 -55q-8 -25 -8 -81v-329q0 -181 -60 -212q-23 -12 -60 -12q-53 0 -88 24q-39 27 -39 78q0 80 74 80q26 0 45 -16t19 -41q0 -16 -13.5 -42.5t-13.5 -42.5q0 -5 7.5 -9.5t13.5 -4.5
q30 0 48 11q47 29 47 262v260q0 70 -15 97q-21 38 -85 38h-24v21z" />
    <glyph glyph-name="afii10030" unicode="&#x41c;" horiz-adv-x="930" 
d="M462 151l218 552h203v-21h-85v-661h85v-21h-287v21h84v626l-256 -647h-8l-263 644v-534q0 -47 18.5 -68t65.5 -21v-21h-191v21q90 0 90 87v513q0 39 -26 52q-18 9 -62 9l1 21h203z" />
    <glyph glyph-name="afii10031" unicode="&#x41d;" horiz-adv-x="830" 
d="M249 365v-344h77v-21h-280v21h86v661h-86v21h280v-21h-77v-296h332v296h-77v21h281v-21h-86v-661h86v-21h-281v21h77v344h-332z" />
    <glyph glyph-name="afii10032" unicode="&#x41e;" horiz-adv-x="802" 
d="M55 351q0 96 31 166q42 95 126 147q81 50 187 50q110 0 193 -51q85 -54 127 -154q27 -66 27 -158q0 -93 -30 -161q-42 -95 -127 -148.5t-190 -53.5q-103 0 -187 54.5t-126 147.5q-31 69 -31 161zM399 694q-118 0 -171 -120q-39 -87 -39 -223t38 -223q53 -120 172 -120
q32 0 69 13q83 30 123 153q22 68 22 177q0 137 -40 224q-54 119 -174 119z" />
    <glyph glyph-name="afii10033" unicode="&#x41f;" horiz-adv-x="830" 
d="M249 682v-661h77v-21h-280v21h86v661h-86v21h739v-21h-86v-661h86v-21h-281v21h77v661h-332z" />
    <glyph glyph-name="afii10034" unicode="&#x420;" horiz-adv-x="684" 
d="M132 21v661h-86v21h315q117 0 190 -47q86 -56 86 -167q0 -106 -64 -156q-51 -41 -150 -51q-34 -3 -174 -3v-258h97v-21h-300v21h86zM249 682v-383h79q180 0 180 186q0 101 -39 147q-42 50 -141 50h-79z" />
    <glyph glyph-name="afii10035" unicode="&#x421;" horiz-adv-x="649" 
d="M595 234h20l-10 -234h-20q1 43 -40 43q-11 0 -67 -27.5t-120 -27.5q-89 0 -164 55q-72 52 -109 136q-26 60 -26 161q0 96 28 167q38 95 115 151t178 56q50 0 89 -16.5t58 -16.5q38 0 47 33h21v-228h-10q-22 208 -198 208q-34 0 -68 -13q-127 -48 -127 -260v-175
q0 -81 30 -139q35 -68 105 -89q33 -10 58 -10q87 0 145 72q47 59 65 154z" />
    <glyph glyph-name="afii10036" unicode="&#x422;" horiz-adv-x="695" 
d="M288 21v661q-237 0 -237 -201h-21v222h634v-222h-21q0 201 -236 201v-661h94v-21h-307v21h94z" />
    <glyph glyph-name="afii10037" unicode="&#x423;" horiz-adv-x="681" 
d="M0 703h298v-21h-93l220 -452l140 343q15 37 15 64q0 45 -75 45v21h192v-21q-41 0 -59.5 -15.5t-35.5 -55.5l-189 -458q-68 -165 -169 -165q-56 0 -100 33q-48 37 -48 91q0 65 67 65q49 0 49 -54q0 -20 -19 -39.5t-19 -34.5q0 -11 18 -26t46 -15q68 0 121 92l-283 582h-76
v21z" />
    <glyph glyph-name="afii10038" unicode="&#x424;" horiz-adv-x="972" 
d="M545 695v-68q189 0 283 -55q99 -58 99 -194q0 -262 -382 -265v-92h85v-21h-287v21h84v92q-381 0 -381 265q0 136 99 194q94 55 282 55v68h-84v21h287v-21h-85zM427 135v473q-81 0 -131 -24q-117 -56 -117 -183v-70q0 -101 76 -152q66 -44 172 -44zM545 608v-473
q106 0 172 44q77 51 77 152v70q0 126 -118 183q-50 24 -131 24z" />
    <glyph glyph-name="afii10039" unicode="&#x425;" horiz-adv-x="767" 
d="M398 434l114 169q11 16 11 42q0 13 -19 25t-61 12v21h236v-21q-56 -4 -87 -24t-63 -68l-115 -174l266 -395h63v-21h-287v21h83l-206 305l-132 -196q-15 -22 -15 -46q0 -57 87 -63v-21h-248v22q94 20 140 89l157 233l-234 338h-63v21h276v-21h-70z" />
    <glyph glyph-name="afii10040" unicode="&#x426;" horiz-adv-x="826" 
d="M576 21v661h-76v21h277v-21h-82v-661h107v-205h-22q0 106 -52 147q-47 37 -155 37h-527v21h86v661h-86v21h280v-21h-77v-661h327z" />
    <glyph glyph-name="afii10041" unicode="&#x427;" horiz-adv-x="733" 
d="M485 387v295h-77v21h279v-21h-84v-661h84v-21h-297v21h95v336q-101 -36 -186 -36q-74 0 -117 23q-87 46 -87 141v197h-79v21h273v-21h-77v-188q0 -144 130 -144q77 0 143 37z" />
    <glyph glyph-name="afii10042" unicode="&#x428;" horiz-adv-x="1153" 
d="M635 682v-661h270v661h-78v21h277v-21h-81v-661h84v-21h-1061v21h86v661h-83v21h277v-21h-77v-661h269v661h-77v21h273v-21h-79z" />
    <glyph glyph-name="afii10043" unicode="&#x429;" horiz-adv-x="1153" 
d="M905 21v661h-78v21h279v-21h-83v-661h106v-205h-20q0 105 -53 147q-47 37 -154 37h-856v21h86v661h-83v21h277v-21h-77v-661h269v661h-77v21h273v-21h-79v-661h270z" />
    <glyph glyph-name="afii10044" unicode="&#x42a;" horiz-adv-x="786" 
d="M13 476v227h440v-21h-85v-293q41 7 115 7q113 0 184 -40q88 -50 88 -154q0 -119 -84 -166q-63 -36 -192 -36h-325v21h95v661q-217 0 -217 -206h-19zM368 21h110q91 0 123 46q24 37 24 133q0 95 -30 133q-34 44 -127 44q-56 0 -100 -8v-348z" />
    <glyph glyph-name="afii10045" unicode="&#x42b;" horiz-adv-x="1002" 
d="M760 21v661h-85v21h279v-21h-77v-661h77v-21h-279v21h85zM46 682v21h288v-21h-85v-292q50 6 116 6q114 0 183 -39q88 -50 88 -155q0 -120 -83 -167q-63 -35 -193 -35h-314v21h86v661h-86zM249 21h110q92 0 123 46q25 36 25 133q0 95 -30 133q-34 44 -127 44
q-50 0 -101 -8v-348z" />
    <glyph glyph-name="afii10046" unicode="&#x42c;" horiz-adv-x="666" 
d="M132 21v661h-86v21h288v-21h-85v-292q50 6 116 6q114 0 183 -39q88 -50 88 -155q0 -120 -83 -167q-63 -35 -193 -35h-314v21h86zM249 369v-348h110q92 0 123 46q25 36 25 133q0 95 -30 133q-34 44 -127 44q-50 0 -101 -8z" />
    <glyph glyph-name="afii10047" unicode="&#x42d;" horiz-adv-x="649" 
d="M251 249v242h17q0 -58 25 -83.5t83 -25.5h86v93q0 96 -42 153q-47 65 -139 65q-57 0 -95 -24q-88 -55 -111 -188h-25l30 233h20q3 -29 34 -29q17 0 67 15q47 14 86 14q147 0 231 -107q77 -97 77 -248q0 -158 -84 -261q-90 -110 -245 -110q-66 0 -123 22q-66 27 -95 77
q-17 29 -17 59q0 33 17 56q19 27 51 27q30 0 50 -18t20 -47q0 -28 -29 -51t-29 -43q0 -12 13 -23q44 -39 132 -39q206 0 206 272v81h-79q-62 0 -88.5 -25t-26.5 -87h-17z" />
    <glyph glyph-name="afii10048" unicode="&#x42e;" horiz-adv-x="1121" 
d="M1068 351q0 -83 -27 -150q-40 -98 -125.5 -155.5t-191.5 -57.5q-148 0 -247 112q-95 107 -97 257h-131v-336h85v-21h-288v21h86v661h-86v21h288v-21h-85v-304h131q10 83 43 147q45 87 125 138t176 51q61 0 122 -23q106 -40 165 -134q57 -89 57 -206zM513 351
q0 -109 27 -190q37 -111 117 -140q36 -13 67 -13q33 0 69 13q80 29 116 140q26 80 26 190t-26 190q-36 111 -116 140q-36 13 -69 13q-100 0 -156 -92q-45 -74 -53 -183q-2 -30 -2 -68z" />
    <glyph glyph-name="afii10049" unicode="&#x42f;" horiz-adv-x="761" 
d="M512 21v340h-85q-134 0 -163 -97q-9 -89 -18 -179q-17 -97 -124 -97q-74 0 -117 58l16 15q31 -34 59 -34q38 0 50 57q6 27 6 88q0 184 166 198v3q-75 9 -124 52q-53 48 -53 120q0 100 102 136q62 22 186 22h302v-21h-86v-661h86v-21h-289v21h86zM512 382v300h-88
q-157 0 -169 -98q-2 -16 -2 -36q0 -91 43 -128.5t135 -37.5h81z" />
    <glyph glyph-name="afii10065" unicode="&#x430;" horiz-adv-x="513" 
d="M502 54l12 -11q-42 -55 -108 -55q-38 0 -59 19q-18 16 -31 55q-75 -74 -164 -74q-54 0 -88 32t-34 86q0 96 104 131q62 21 183 21v120q0 41 -17.5 56t-59.5 15q-73 0 -73 -23q0 -17 10.5 -34t10.5 -27q0 -66 -61 -66q-31 0 -48 23t-17 55q0 47 69 73q53 19 110 19
q89 0 127 -21q51 -29 51 -111v-273q0 -42 28 -42q26 0 55 32zM317 108v132h-31q-80 0 -110 -26q-33 -29 -33 -107q0 -73 81 -73q29 0 61 23t32 51z" />
    <glyph glyph-name="afii10066" unicode="&#x431;" horiz-adv-x="520" 
d="M458 775h11q0 -89 -35 -134q-38 -47 -124 -58q-99 -12 -144 -31q-70 -30 -104 -100q-23 -47 -22 -110v-17h17q72 144 201 144q110 0 173.5 -65t63.5 -175q0 -106 -65.5 -173.5t-171.5 -67.5q-33 0 -74 13q-91 29 -135 148q-24 65 -24 166q0 236 87 318q37 35 100 43
q110 14 126 18q89 17 109 46q11 16 11 35zM143 305v-133q0 -81 18 -116q25 -50 99 -50q71 0 98 57q20 40 20 119v123q0 63 -27 101q-31 44 -91 44q-16 0 -36 -7q-81 -29 -81 -138z" />
    <glyph glyph-name="afii10067" unicode="&#x432;" horiz-adv-x="522" 
d="M92 18v420h-70v19h256q183 0 183 -98q0 -23 -2 -36q-11 -69 -114 -79v-2q142 -13 142 -130q0 -56 -51 -87q-43 -25 -103 -25h-311v18h70zM194 234v-216h86q54 0 76 30q18 25 18 82q0 104 -92 104h-88zM194 438v-187h73q76 0 83 58q1 9 1 30q0 56 -20 77.5t-76 21.5h-61z
" />
    <glyph glyph-name="afii10068" unicode="&#x433;" horiz-adv-x="416" 
d="M92 18v420h-70v19h385v-149h-17q0 72 -34 101t-107 29h-55v-420h70v-18h-242v18h70z" />
    <glyph glyph-name="afii10069" unicode="&#x434;" horiz-adv-x="490" 
d="M36 457h432v-19h-70v-420h83v-144h-16q0 74 -52 103q-40 23 -120 23h-153q-110 0 -125 -126h-18l10 144h18q49 0 74 46q21 38 21 91v210q0 43 -20 58t-64 15v19zM296 18v420h-106q-53 0 -53 -73v-212q0 -91 -37 -135h196z" />
    <glyph glyph-name="afii10070" unicode="&#x435;" horiz-adv-x="480" 
d="M441 126l16 -11q-84 -127 -199 -127q-110 0 -170 65t-60 176q0 101 56 168q60 72 159 72q96 0 151 -61q52 -57 58 -154h-311v-74q0 -170 113 -170q103 0 187 116zM141 272h202q0 78 -12 115q-22 63 -83 63t-87 -39q-20 -31 -20 -96v-43z" />
    <glyph glyph-name="afii10072" unicode="&#x436;" horiz-adv-x="825" 
d="M362 251v187h-63v19h227v-19h-64v-187h38q60 0 84 56l30 104q23 56 81 56q35 0 56.5 -19.5t21.5 -54.5q0 -62 -60 -62q-47 0 -47 42q0 6 3 18.5t3 18.5q0 15 -17 15q-22 0 -41 -66q-23 -82 -29 -90q-11 -16 -34 -24v-1q64 0 94 -8q54 -13 66 -56q6 -22 6 -56
q0 -90 41 -90q30 0 47 26l10 -4q-32 -68 -111 -68q-68 0 -83 56q-4 54 -9 109q-6 63 -51 76q-20 6 -57 6q-8 0 -21 -1h-21v-216h70v-18h-241v18h71v216h-45q-64 0 -84 -22t-22 -84q-2 -73 -11 -95q-18 -45 -78 -45q-80 0 -114 68l11 5q15 -27 47 -27q42 0 42 90q0 34 6 56
q12 42 67 56q30 8 93 8v1q-28 9 -42 40q-8 17 -18 63q-9 41 -20.5 59t-22.5 18q-20 0 -20 -15q0 -6 3.5 -18t3.5 -19q0 -42 -48 -42q-27 0 -43.5 17.5t-16.5 44.5q0 34 23 54t58 20q51 0 73 -39q10 -18 26 -83q13 -54 35 -73q25 -22 71 -21h26z" />
    <glyph glyph-name="afii10073" unicode="&#x437;" horiz-adv-x="427" 
d="M55 298h-13l17 171h14q7 -19 29 -19q8 0 44 10q33 9 70 9q88 0 125.5 -32.5t37.5 -74.5q0 -103 -130 -112v-2q151 -19 151 -127q0 -70 -68 -105q-53 -28 -131 -28q-70 0 -123 24q-68 32 -68 94q0 58 62 58q55 0 55 -62q0 -15 -19 -30.5t-19 -25.5q0 -13 24.5 -27
t72.5 -14q59 0 80 30q17 24 17 86q0 80 -33 102q-23 15 -109 15v17q79 0 101 15q29 20 29 95q0 85 -75 85q-115 0 -141 -152z" />
    <glyph glyph-name="afii10074" unicode="&#x438;" horiz-adv-x="582" 
d="M194 89l194 318v31h-62v19h234v-19h-71v-420h71v-18h-234v18h62v360l-194 -318v-42h61v-18h-233v18h70v420h-70v19h233v-19h-61v-349z" />
    <glyph glyph-name="afii10075" unicode="&#x439;" horiz-adv-x="582" 
d="M438 627q0 -112 -147 -112q-145 0 -145 112q0 51 52 51q40 0 40 -51q0 -25 -21.5 -33t-21.5 -27q0 -32 111 -32q22 0 48 7q35 9 35 25q0 20 -21.5 27.5t-21.5 32.5q0 51 40 51q52 0 52 -51zM194 89l194 318v31h-62v19h234v-19h-71v-420h71v-18h-234v18h62v360l-194 -318
v-42h61v-18h-233v18h70v420h-70v19h233v-19h-61v-349z" />
    <glyph glyph-name="afii10076" unicode="&#x43a;" horiz-adv-x="564" 
d="M194 251h43q47 0 71 33q14 22 27 75q14 57 26 77q19 33 70 33q35 0 57.5 -20.5t22.5 -55.5q0 -62 -59 -62q-50 0 -50 42q0 7 4.5 19t4.5 18q0 15 -20 15q-10 0 -21 -18t-21 -60q-11 -45 -19 -62q-15 -32 -43 -40v-1q94 0 130.5 -27t36.5 -93q0 -90 41 -90q28 0 48 26
l10 -4q-34 -68 -112 -68q-68 0 -83 55q-4 55 -9 109q-6 64 -52 77q-20 6 -58 6q-8 0 -23 -1h-22v-216h63v-18h-235v18h70v420h-63v19h228v-19h-63v-187z" />
    <glyph glyph-name="afii10077" unicode="&#x43b;" horiz-adv-x="548" 
d="M83 457h441v-19h-69v-420h69v-18h-241v18h69v420h-106q-37 0 -51 -13t-14 -50v-275q0 -55 -18 -81q-21 -31 -74 -31q-34 0 -57 19t-23 53q0 56 52 56q47 0 47 -42q0 -5 -3 -14t-3 -14q0 -19 15 -19q33 0 45 23q9 16 9 53v268q0 45 -23 58q-15 9 -65 9v19z" />
    <glyph glyph-name="afii10078" unicode="&#x43c;" horiz-adv-x="676" 
d="M32 438v19h171l135 -329l133 329h180v-19h-66v-420h70v-18h-241v18h69v423l-179 -441h-3l-183 416v-337q0 -39 18 -51q13 -10 52 -10v-18h-160v18q73 0 73 59v302q0 39 -16 50q-12 9 -53 9z" />
    <glyph glyph-name="afii10079" unicode="&#x43d;" horiz-adv-x="582" 
d="M194 238v-220h61v-18h-233v18h70v420h-70v19h233v-19h-61v-183h194v183h-62v19h234v-19h-71v-420h71v-18h-234v18h62v220h-194z" />
    <glyph glyph-name="afii10080" unicode="&#x43e;" horiz-adv-x="521" 
d="M28 229q0 113 59.5 176.5t172.5 63.5q111 0 172 -64t61 -176t-60.5 -176.5t-172.5 -64.5q-113 0 -172.5 63.5t-59.5 177.5zM142 225q0 -93 17 -141q28 -78 103 -78q117 0 117 221q0 95 -16 143q-27 80 -103 80q-74 0 -102 -82q-16 -49 -16 -143z" />
    <glyph glyph-name="afii10081" unicode="&#x43f;" horiz-adv-x="582" 
d="M194 438v-420h61v-18h-233v18h70v420h-70v19h538v-19h-71v-420h71v-18h-234v18h62v420h-194z" />
    <glyph glyph-name="afii10082" unicode="&#x440;" horiz-adv-x="548" 
d="M191 463v-77q39 83 113 83q106 0 162 -69q53 -64 53 -172q0 -112 -54 -174q-58 -66 -168 -66q-72 0 -106 61v-248h79v-19h-251v19h70v637h-70v19zM406 312q0 136 -103 136q-47 0 -79.5 -33t-32.5 -80v-240q0 -37 35 -63.5t73 -26.5q107 0 107 158v149z" />
    <glyph glyph-name="afii10083" unicode="&#x441;" horiz-adv-x="450" 
d="M414 117l12 -5q-46 -124 -162 -124t-175.5 62.5t-59.5 178.5q0 240 235 240q70 0 114 -34t44 -77q0 -28 -16 -49.5t-43 -21.5q-28 0 -47.5 19t-19.5 47q0 13 16.5 32t16.5 39q0 8 -13 17q-16 11 -49 11q-25 0 -41 -3q-84 -16 -84 -151v-135q0 -75 24 -111q30 -45 101 -45
q101 0 147 110z" />
    <glyph glyph-name="afii10084" unicode="&#x442;" horiz-adv-x="474" 
d="M185 18v420q-79 0 -116 -25q-44 -30 -44 -105h-12v149h447v-149h-12q0 76 -45 106q-36 24 -116 24v-420h70v-18h-242v18h70z" />
    <glyph glyph-name="afii10085" unicode="&#x443;" horiz-adv-x="510" 
d="M0 457h233v-19h-70l165 -336l92 249q7 19 7 49q0 26 -26 34q-13 4 -48 4v19h172v-19q-35 0 -58 -30q-13 -18 -30 -63l-168 -453q-42 -114 -124 -114q-37 0 -65 20q-31 22 -31 57q0 26 18.5 41t44.5 15q43 0 43 -41q0 -11 -6 -18t-6 -21q0 -18 35 -18q39 0 74 88l27 68
l-230 469h-49v19z" />
    <glyph glyph-name="afii10086" unicode="&#x444;" horiz-adv-x="798" 
d="M450 678v-283q46 74 119 74q95 0 151 -77q49 -68 49 -167q0 -117 -48 -174q-52 -63 -167 -63q-61 0 -104 71v-258h70v-19h-241v19h69v259q-25 -44 -54.5 -58t-48.5 -14q-106 0 -163 67q-53 62 -53 170q0 101 51 169q56 75 154 75q72 0 114 -75v259h-69v18zM657 144v164
q0 73 -32.5 105.5t-76.5 32.5q-45 0 -73 -38q-25 -34 -25 -81v-188q0 -53 23 -89q27 -42 77 -42q40 0 73.5 31.5t33.5 104.5zM348 139v187q0 47 -24 81q-27 39 -72 39t-77.5 -32.5t-32.5 -105.5v-164q0 -55 25 -93q30 -43 82 -43q51 0 77 42q22 35 22 89z" />
    <glyph glyph-name="afii10087" unicode="&#x445;" horiz-adv-x="549" 
d="M226 212l-160 226h-58v19h234v-19h-48l114 -159l52 73q28 39 28 66q0 20 -59 20v19h186v-19q-41 0 -65 -13.5t-49 -47.5l-84 -115l173 -244h50v-18h-238v18h63l-129 178l-72 -96q-18 -24 -18 -53q0 -13 23 -22q18 -7 34 -7v-18h-195v18q77 0 143 91z" />
    <glyph glyph-name="afii10088" unicode="&#x446;" horiz-adv-x="586" 
d="M92 18v420h-66v19h229v-19h-61v-420h194v420h-62v19h230v-19h-67v-420h88v-144h-17q0 80 -51 107q-36 19 -124 19h-363v18h70z" />
    <glyph glyph-name="afii10089" unicode="&#x447;" horiz-adv-x="510" 
d="M315 18v199q-72 -31 -155 -31q-97 0 -97 98v154h-63v19h220v-19h-55v-173q0 -48 70 -48q38 0 80 16v205h-56v19h227v-19h-69v-420h69v-18h-241v18h70z" />
    <glyph glyph-name="afii10090" unicode="&#x448;" horiz-adv-x="817" 
d="M796 0h-774v18h70v420h-66v19h229v-19h-61v-420h165v420h-58v19h217v-19h-59v-420h165v420h-62v19h231v-19h-67v-420h70v-18z" />
    <glyph glyph-name="afii10091" unicode="&#x449;" horiz-adv-x="822" 
d="M562 457h231v-19h-67v-420h87v-144h-16q0 35 -8 58q-24 68 -168 68h-599v18h70v420h-66v19h229v-19h-61v-420h165v420h-58v19h217v-19h-59v-420h165v420h-62v19z" />
    <glyph glyph-name="afii10092" unicode="&#x44a;" horiz-adv-x="561" 
d="M13 308v149h334v-19h-69v-172h24h23q216 0 216 -136q0 -67 -55 -101q-47 -29 -118 -29h-262v18h70v420h-11q-140 0 -140 -130h-12zM278 248v-230h46q65 0 85 24q18 21 18 88q0 63 -14 87q-20 31 -79 31h-56z" />
    <glyph glyph-name="afii10093" unicode="&#x44b;" horiz-adv-x="722" 
d="M630 18h70v-18h-237v18h65v420h-69v19h241v-19h-70v-420zM22 438v19h242v-19h-70v-172h46q217 2 217 -136q0 -67 -56 -101q-47 -29 -118 -29h-261v18h70v420h-70zM194 248v-230h46q65 0 86 24q18 22 18 88q0 63 -15 87q-20 31 -80 31h-55z" />
    <glyph glyph-name="afii10094" unicode="&#x44c;" horiz-adv-x="477" 
d="M22 438v19h242v-19h-70v-172h46q217 2 217 -136q0 -67 -56 -101q-47 -29 -118 -29h-261v18h70v420h-70zM194 248v-230h46q65 0 86 24q18 22 18 88q0 63 -15 87q-20 31 -80 31h-55z" />
    <glyph glyph-name="afii10095" unicode="&#x44d;" horiz-adv-x="458" 
d="M58 307h-16l5 162h18q5 -19 33 -19q14 0 47 10q30 9 63 9q106 0 166 -61.5t60 -167.5q0 -128 -68 -190t-177 -62q-65 0 -112 25q-58 32 -58 91q0 25 17.5 42.5t42.5 17.5q51 0 51 -56q0 -17 -17.5 -32t-17.5 -36q0 -19 39 -28q28 -7 57 -7q72 0 99 52q26 49 26 172h-170
v17h170v8q0 86 -17 129q-26 67 -98 67q-60 0 -97.5 -40.5t-45.5 -102.5z" />
    <glyph glyph-name="afii10096" unicode="&#x44e;" horiz-adv-x="786" 
d="M194 245h97q0 97 68.5 160.5t165.5 63.5q103 0 168 -68t65 -172q0 -107 -63.5 -174t-169.5 -67q-108 0 -171 66.5t-63 174.5h-97v-211h70v-18h-242v18h70v420h-70v19h242v-19h-70v-193zM644 230q0 95 -16 141q-27 79 -102 79q-118 0 -118 -219q0 -94 16 -143
q28 -82 102 -82q77 0 103 80q15 46 15 144z" />
    <glyph glyph-name="afii10097" unicode="&#x44f;" horiz-adv-x="552" 
d="M2 42l11 12q21 -23 44 -23q41 0 41 69q0 122 139 132v2q-144 10 -144 112q0 43 39 77t135 34h262v-19h-69v-420h69v-18h-238v18h67v207h-52q-107 0 -107 -129q0 -51 -24 -79.5t-64 -28.5q-62 0 -109 54zM358 243v195h-66q-86 0 -86 -92q0 -103 90 -103h62z" />
    <glyph glyph-name="afii10071" unicode="&#x451;" horiz-adv-x="479" 
d="M80 630q0 25 16.5 43t41.5 18q26 0 42.5 -17.5t16.5 -43.5q0 -25 -17 -42t-42 -17q-23 0 -40.5 18t-17.5 41zM281 630q0 25 17 43t42 18t41.5 -17.5t16.5 -43.5q0 -25 -16.5 -42t-41.5 -17q-23 0 -41 18t-18 41zM440 126l16 -11q-86 -127 -199 -127q-111 0 -172 66
q-58 63 -58 175q0 101 56 168q60 72 159 72q96 0 151 -61q51 -56 57 -154h-310v-74q0 -170 113 -170q103 0 187 116zM140 272h201q0 78 -12 115q-21 63 -82 63t-87 -39q-20 -31 -20 -96v-43z" />
    <glyph glyph-name="endash" unicode="&#x2013;" 
d="M16 278h491v-45h-491v45z" />
    <glyph glyph-name="emdash" unicode="&#x2014;" horiz-adv-x="1098" 
d="M1017 266v-34h-936v34h936z" />
    <glyph glyph-name="quoteleft" unicode="&#x2018;" horiz-adv-x="354" 
d="M202 769l13 -15q-31 -22 -54 -56q-26 -39 -26 -73q0 -17 15 -17q8 0 22.5 6.5t22.5 6.5q51 0 51 -58q0 -60 -68 -60q-34 0 -53 35q-17 29 -17 65q0 49 26 94t68 72z" />
    <glyph glyph-name="quoteright" unicode="&#x2019;" horiz-adv-x="354" 
d="M152 445l-12 16q30 19 54 55q26 40 26 72q0 19 -16 19q-7 0 -21 -6t-23 -6q-23 0 -37.5 16.5t-14.5 40.5q0 59 69 59q26 0 46 -25q17 -22 21 -49q2 -11 2 -26q0 -98 -94 -166z" />
    <glyph glyph-name="quotesinglbase" unicode="&#x201a;" horiz-adv-x="355" 
d="M153 -161l-12 15q30 21 54 56q25 40 25 73q0 18 -15 18q-8 0 -22.5 -6.5t-22.5 -6.5q-24 0 -38 17t-14 41q0 59 69 59q41 0 62 -50q8 -19 8 -50q0 -52 -27 -94q-20 -32 -67 -72z" />
    <glyph glyph-name="quotedblleft" unicode="&#x201c;" horiz-adv-x="574" 
d="M202 771l13 -16q-49 -33 -64.5 -69.5t-15.5 -58.5q0 -17 15 -17q8 0 22.5 6t22.5 6q52 0 52 -58t-68 -58q-24 0 -47.5 23.5t-23.5 75.5q0 98 94 166zM420 771l12 -15q-80 -58 -80 -129q0 -5 6 -11t11 -6q8 0 22 6t22 6q52 0 52 -58q0 -28 -20 -43t-49 -15q-33 0 -53 34
q-17 29 -17 65q0 96 94 166z" />
    <glyph glyph-name="quotedblright" unicode="&#x201d;" horiz-adv-x="574" 
d="M372 447l-13 16q78 56 78 128q0 17 -14 17q-8 0 -22.5 -5.5t-22.5 -5.5q-23 0 -37.5 16.5t-14.5 40.5q0 28 19.5 43.5t48.5 15.5q35 0 55 -33q16 -28 16 -66q0 -54 -25 -95q-20 -32 -68 -72zM153 447l-12 16q79 56 79 128q0 17 -15 17q-8 0 -22.5 -5.5t-22.5 -5.5
q-23 0 -37.5 16.5t-14.5 39.5q0 60 69 60q36 0 55 -33q15 -27 15 -66q0 -54 -26 -95q-20 -32 -68 -72z" />
    <glyph glyph-name="quotedblbase" unicode="&#x201e;" horiz-adv-x="574" 
d="M372 -162l-13 15q29 20 53.5 58t24.5 71q0 18 -14 18q-9 0 -21.5 -6.5t-23.5 -6.5q-24 0 -38 17t-14 41q0 28 19.5 43.5t48.5 15.5q24 0 47.5 -23.5t23.5 -76.5t-26 -94q-19 -30 -67 -72zM153 -162l-12 15q32 23 55 56q25 38 25 73q0 18 -16 18q-8 0 -20 -6.5t-24 -6.5
q-23 0 -38 17t-15 41q0 28 20.5 43.5t49.5 15.5q36 0 54 -34q15 -26 15 -66q0 -98 -94 -166z" />
    <glyph glyph-name="dagger" unicode="&#x2020;" horiz-adv-x="619" 
d="M295 407q-9 1 -17 1q-32 0 -89.5 -23.5t-84.5 -23.5q-25 0 -42 15t-17 39q0 26 12.5 46.5t37.5 20.5q24 0 82 -19q25 -8 64 -17q28 -6 40 -6q7 0 14 1q0 61 -29 157q-13 43 -13 68q0 24 20 38t45 14q24 0 37.5 -18t13.5 -43q0 -20 -24 -90q-22 -64 -22 -126q9 -2 17 -2
q10 0 37 6.5t50.5 13.5t49 15t46.5 8q25 0 39 -22q12 -18 12 -45q0 -54 -59 -54q-26 0 -84 23.5t-90 23.5q-9 0 -18 -1v-37q0 -131 12 -199q9 -33 23 -101q12 -73 12 -217q0 -95 -54 -95q-23 0 -42 20t-19 75q0 52 22 237q18 152 18 317z" />
    <glyph glyph-name="bullet" unicode="&#x2022;" horiz-adv-x="550" 
d="M170 375q0 44 30.5 74.5t74.5 30.5t74.5 -30.5t30.5 -74.5t-30.5 -74t-74.5 -30t-74.5 30t-30.5 74z" />
    <glyph glyph-name="ellipsis" unicode="&#x2026;" horiz-adv-x="954" 
d="M109 48q0 26 17 43t43 17q24 0 41.5 -18t17.5 -42q0 -25 -17 -42.5t-42 -17.5q-26 0 -43 17t-17 43zM419 48q0 26 16.5 43t42.5 17q24 0 41 -18t17 -42t-17 -42t-41 -18q-26 0 -42.5 17t-16.5 43zM728 48q0 26 17 43t43 17q24 0 41 -18t17 -42t-17 -42t-41 -18
q-26 0 -43 17t-17 43z" />
    <glyph glyph-name="perthousand" unicode="&#x2030;" horiz-adv-x="1330" 
d="M93 549q0 67 44 116t110 49t112.5 -49t46.5 -116t-46.5 -117t-112.5 -50t-110 50.5t-44 116.5zM167 571v-46q0 -127 82 -127t82 127v50q0 48 -17 81q-21 43 -65 43t-65 -45q-17 -34 -17 -83zM295 -10l-28 15l368 709l30 -15zM522 155q0 67 44 117t110 50t112 -50t46 -117
q0 -66 -46 -115.5t-112 -49.5q-65 0 -110 51q-44 48 -44 114zM595 178v-49q0 -49 17 -82q22 -42 66 -42q82 0 82 128v49q0 48 -17 81q-21 42 -65 42q-43 0 -65 -44q-18 -35 -18 -83zM925 155q0 68 44.5 117.5t111.5 49.5t111.5 -49.5t44.5 -117.5q0 -67 -45 -116t-111 -49
t-111 49.5t-45 115.5zM999 178v-49q0 -49 17 -82q23 -42 67 -42q82 0 82 128v49q0 47 -17 81q-22 42 -65 42q-44 0 -66 -44q-18 -35 -18 -83z" />
    <glyph glyph-name="guilsinglleft" unicode="&#x2039;" horiz-adv-x="332" 
d="M302 12l-8 -7q-111 128 -264 223q148 89 264 221l8 -6q-79 -127 -154 -215q82 -98 154 -216z" />
    <glyph glyph-name="guilsinglright" unicode="&#x203a;" horiz-adv-x="332" 
d="M30 443l7 6q112 -131 265 -221q-157 -97 -264 -223l-8 7q71 118 152 216q-75 89 -152 215z" />
    <glyph glyph-name="afii61352" unicode="&#x2116;" horiz-adv-x="1219" 
d="M730 -12h-21l-421 612v-478q0 -134 -108 -134q-51 0 -90 27q-44 31 -44 80q0 34 17.5 57t50.5 23q24 0 40 -17t16 -41q0 -19 -18.5 -44.5t-18.5 -29.5q0 -10 8.5 -23t35.5 -13q92 0 92 114v507q0 50 -99 50v25h188l352 -520v400q0 57 27 92q30 39 85 39q51 0 89 -29
q42 -32 42 -81q0 -74 -59 -74q-27 0 -44 17t-17 44q0 15 16 36.5t16 32.5q0 33 -45 33q-44 0 -68 -35q-22 -30 -22 -76v-594zM812 285q0 72 53 119q51 44 124 44q74 0 123 -46.5t49 -119.5q0 -68 -51 -117t-120 -49q-73 0 -125.5 48.5t-52.5 120.5zM1079 236v91
q0 41 -24.5 70t-64.5 29q-44 0 -68.5 -27t-24.5 -72v-83q0 -44 24 -73.5t68 -29.5q43 0 66.5 26t23.5 69zM1144 43v-26h-325v26h325z" />
    <glyph glyph-name="trademark" unicode="&#x2122;" horiz-adv-x="869" 
d="M503 703l71 -205l76 205h89v-13q-21 0 -28 -4q-11 -5 -11 -24v-191q0 -19 11 -24q7 -4 28 -4v-13h-121v13q39 0 39 28v190l-91 -231h-8l-88 225v-184q0 -28 39 -28v-13h-100v13q39 0 39 28v190q0 29 -39 29v13h94zM131 612l6 91h225l6 -91h-14q-4 43 -21 60.5t-59 17.5
v-219q0 -28 39 -28v-13h-127v13q39 0 39 28v219h-10q-64 0 -71 -78h-13z" />
    <glyph glyph-name="u0000" horiz-adv-x="1000" 
 />
    <glyph glyph-name="u0001" horiz-adv-x="1000" 
 />
    </font>
</defs>
</svg>
